<svg width="607.7562133789062px" height="122px" xmlns="http://www.w3.org/2000/svg" viewBox="-53.87810668945309 14 607.7562133789062 122" style="background: rgba(0, 0, 0, 0);" preserveAspectRatio="xMidYMid"><defs><linearGradient id="editing-rainbow-gradient" x1="0" x2="1" y1="0.5" y2="0.5" gradientUnits="objectBoundingBox"><stop offset="0.00" stop-color="#3c0606"></stop><stop offset="0.17" stop-color="#ab7b34"></stop><stop offset="0.34" stop-color="#ff4"></stop><stop offset="0.51" stop-color="#9ac15f"></stop><stop offset="0.68" stop-color="#09f"></stop><stop offset="0.85" stop-color="#00f"></stop><stop offset="1.00" stop-color="#9900ff"></stop></linearGradient><filter id="editing-rainbow" x="-100%" y="-100%" width="300%" height="300%"><feMorphology operator="dilate" radius="1,2" in="SourceGraphic" result="dilate"></feMorphology><feColorMatrix in="dilate" result="color" type="matrix" values="0.7 0 0 0 0  0 0.7 0 0 0  0 0 0.7 0 0  0 0 0 1 0"></feColorMatrix><feOffset dy="2" result="offset"></feOffset><feGaussianBlur stdDeviation="3"></feGaussianBlur><feOffset dy="3"></feOffset><feColorMatrix result="blur" type="matrix" values="0.7 0 0 0 0  0 0.7 0 0 0  0 0 0.7 0 0  0 0 0 1 0"></feColorMatrix><feMerge><feMergeNode in="blur"></feMergeNode><feMergeNode in="offset"></feMergeNode><feMergeNode in="SourceGraphic"></feMergeNode></feMerge></filter></defs><g filter="url(#editing-rainbow)"><g transform="translate(33.964969754219055, 104.79000091552734)"><path d="M16.45-3.52L16.45-3.52L16.45-3.52Q14.46 1.28 8.13 1.28L8.13 1.28L8.13 1.28Q4.86 1.28 2.82-0.96L2.82-0.96L2.82-0.96Q1.09-2.94 1.09-4.93L1.09-4.93L1.09-4.93Q1.09-10.11 3.46-20.22L3.46-20.22L5.82-32.64L18.82-33.92L14.91-13.70L14.91-13.70Q13.82-8.96 13.82-7.30L13.82-7.30L13.82-7.30Q13.82-3.65 16.45-3.52ZM6.98-41.54L6.98-41.54L6.98-41.54Q6.98-44.03 9.06-45.38L9.06-45.38L9.06-45.38Q11.14-46.72 14.14-46.72L14.14-46.72L14.14-46.72Q17.15-46.72 18.98-45.38L18.98-45.38L18.98-45.38Q20.80-44.03 20.80-41.54L20.80-41.54L20.80-41.54Q20.80-39.04 18.78-37.76L18.78-37.76L18.78-37.76Q16.77-36.48 13.76-36.48L13.76-36.48L13.76-36.48Q10.75-36.48 8.86-37.76L8.86-37.76L8.86-37.76Q6.98-39.04 6.98-41.54ZM67.97 1.28L67.97 1.28L67.97 1.28Q60.22 1.28 60.22-4.74L60.22-4.74L60.22-4.74Q60.22-7.36 61.34-12.45L61.34-12.45L61.34-12.45Q62.46-17.54 62.85-19.58L62.85-19.58L62.85-19.58Q63.74-24.26 63.74-25.73L63.74-25.73L63.74-25.73Q63.74-28.99 61.31-28.99L61.31-28.99L61.31-28.99Q59.71-28.99 58.18-26.78L58.18-26.78L58.18-26.78Q56.64-24.58 55.94-20.16L55.94-20.16L51.97 0L39.49 1.28L42.94-16.13L42.94-16.13Q43.52-19.01 44.03-22.27L44.03-22.27L44.03-22.27Q44.54-25.54 44.54-26.05L44.54-26.05L44.54-26.05Q44.54-28.99 42.37-28.99L42.37-28.99L42.37-28.99Q40.90-28.99 39.30-26.82L39.30-26.82L39.30-26.82Q37.70-24.64 36.80-20.16L36.80-20.16L32.90 0L20.29 1.28L27.01-32.64L37.44-33.92L36.35-27.46L36.35-27.46Q38.02-30.91 41.09-32.42L41.09-32.42L41.09-32.42Q44.16-33.92 48.96-33.92L48.96-33.92L48.96-33.92Q51.71-33.92 53.50-32.58L53.50-32.58L53.50-32.58Q55.30-31.23 55.87-29.06L55.87-29.06L55.87-29.06Q56.96-31.30 59.74-32.61L59.74-32.61L59.74-32.61Q62.53-33.92 65.95-33.92L65.95-33.92L65.95-33.92Q69.38-33.92 71.07-33.18L71.07-33.18L71.07-33.18Q72.77-32.45 73.79-31.23L73.79-31.23L73.79-31.23Q75.52-28.99 75.52-24.90L75.52-24.90L75.52-24.90Q75.52-20.86 73.79-12.48L73.79-12.48L73.79-12.48Q72.90-8.38 72.90-6.88L72.90-6.88L72.90-6.88Q72.90-5.38 73.76-4.48L73.76-4.48L73.76-4.48Q74.62-3.58 75.90-3.46L75.90-3.46L75.90-3.46Q75.26-1.28 73.06 0L73.06 0L73.06 0Q70.85 1.28 67.97 1.28ZM83.62-1.92L83.62-1.92L83.62-1.92Q82.11-3.58 81.44-6.21L81.44-6.21L81.44-6.21Q80.77-8.83 80.77-13.12L80.77-13.12L80.77-13.12Q80.77-17.41 82.24-21.31L82.24-21.31L82.24-21.31Q83.71-25.22 86.40-28.03L86.40-28.03L86.40-28.03Q91.90-33.92 100.99-33.92L100.99-33.92L100.99-33.92Q104.26-33.92 106.62-32.83L106.62-32.83L117.57-33.92L112.83-8.96L112.83-8.96Q112.64-8.19 112.64-6.78L112.64-6.78L112.64-6.78Q112.64-5.38 113.50-4.48L113.50-4.48L113.50-4.48Q114.37-3.58 115.65-3.46L115.65-3.46L115.65-3.46Q115.01-1.28 112.67 0L112.67 0L112.67 0Q110.34 1.28 107.71 1.28L107.71 1.28L107.71 1.28Q105.09 1.28 103.33 0.29L103.33 0.29L103.33 0.29Q101.57-0.70 101.06-2.37L101.06-2.37L101.06-2.37Q100.03-0.77 97.86 0.26L97.86 0.26L97.86 0.26Q95.68 1.28 92.77 1.28L92.77 1.28L92.77 1.28Q89.86 1.28 87.49 0.51L87.49 0.51L87.49 0.51Q85.12-0.26 83.62-1.92ZM97.12-27.90L97.12-27.90L97.12-27.90Q96.38-26.75 95.74-24.80L95.74-24.80L95.74-24.80Q95.10-22.85 94.05-17.63L94.05-17.63L94.05-17.63Q92.99-12.42 92.99-8.70L92.99-8.70L92.99-8.70Q92.99-4.99 93.57-3.90L93.57-3.90L93.57-3.90Q94.14-2.82 95.17-2.82L95.17-2.82L95.17-2.82Q97.22-2.82 98.72-4.77L98.72-4.77L98.72-4.77Q100.22-6.72 100.80-10.18L100.80-10.18L104.19-28.93L104.19-28.93Q102.85-30.08 101.28-30.08L101.28-30.08L101.28-30.08Q99.71-30.08 98.78-29.57L98.78-29.57L98.78-29.57Q97.86-29.06 97.12-27.90ZM125.31-26.75L125.31-26.75L125.31-26.75Q127.49-29.82 130.78-31.87L130.78-31.87L130.78-31.87Q134.08-33.92 138.11-33.92L138.11-33.92L138.11-33.92Q142.14-33.92 144.06-32.64L144.06-32.64L156.61-33.92L152.26-9.34L152.26-9.34Q150.02 3.20 145.28 8.13L145.28 8.13L145.28 8.13Q140.74 12.80 131.90 12.80L131.90 12.80L131.90 12.80Q125.18 12.80 121.34 10.69L121.34 10.69L121.34 10.69Q117.50 8.58 117.50 5.06L117.50 5.06L117.50 5.06Q117.50 2.43 119.49 0.93L119.49 0.93L119.49 0.93Q121.47-0.58 124.54-0.58L124.54-0.58L124.54-0.58Q127.23-0.58 129.28 0.64L129.28 0.64L129.28 0.64Q130.50 1.28 131.07 2.18L131.07 2.18L131.07 2.18Q129.60 3.46 129.60 5.57L129.60 5.57L129.60 5.57Q129.60 8.32 132.16 8.32L132.16 8.32L132.16 8.32Q136.45 8.32 138.88-1.79L138.88-1.79L138.88-1.79Q139.58-4.54 140.16-7.30L140.16-7.30L140.16-7.30Q137.28-3.78 130.75-3.78L130.75-3.78L130.75-3.78Q126.21-3.78 123.58-5.95L123.58-5.95L123.58-5.95Q120.96-8.13 120.96-13.25L120.96-13.25L120.96-13.25Q120.96-16.45 122.05-20.06L122.05-20.06L122.05-20.06Q123.14-23.68 125.31-26.75ZM133.63-13.06L133.63-13.06L133.63-13.06Q133.63-8.70 135.87-8.70L135.87-8.70L135.87-8.70Q137.41-8.70 138.88-10.37L138.88-10.37L138.88-10.37Q140.03-11.71 140.48-13.70L140.48-13.70L143.74-30.14L143.74-30.14Q143.42-30.21 143.10-30.34L143.10-30.34L143.10-30.34Q142.46-30.59 141.63-30.59L141.63-30.59L141.63-30.59Q137.73-30.59 135.42-24.19L135.42-24.19L135.42-24.19Q133.63-19.20 133.63-13.06ZM185.02-10.82L185.02-10.82L185.02-10.82Q186.62-9.73 186.62-7.33L186.62-7.33L186.62-7.33Q186.62-4.93 185.41-3.39L185.41-3.39L185.41-3.39Q184.19-1.86 182.21-0.83L182.21-0.83L182.21-0.83Q178.11 1.28 173.70 1.28L173.70 1.28L173.70 1.28Q169.28 1.28 166.69 0.32L166.69 0.32L166.69 0.32Q164.10-0.64 162.37-2.43L162.37-2.43L162.37-2.43Q158.98-5.82 158.98-12.03L158.98-12.03L158.98-12.03Q158.98-21.70 164.22-27.58L164.22-27.58L164.22-27.58Q169.86-33.92 179.65-33.92L179.65-33.92L179.65-33.92Q185.73-33.92 188.74-31.36L188.74-31.36L188.74-31.36Q190.98-29.44 190.98-26.30L190.98-26.30L190.98-26.30Q190.98-15.04 171.52-15.04L171.52-15.04L171.52-15.04Q171.26-13.38 171.26-11.97L171.26-11.97L171.26-11.97Q171.26-9.02 172.58-7.90L172.58-7.90L172.58-7.90Q173.89-6.78 176.32-6.78L176.32-6.78L176.32-6.78Q178.75-6.78 181.34-7.90L181.34-7.90L181.34-7.90Q183.94-9.02 185.02-10.82ZM171.97-17.79L171.97-17.79L171.97-17.79Q176.51-17.79 179.14-20.61L179.14-20.61L179.14-20.61Q181.76-23.30 181.76-27.58L181.76-27.58L181.76-27.58Q181.76-29.06 181.22-29.86L181.22-29.86L181.22-29.86Q180.67-30.66 179.58-30.66L179.58-30.66L179.58-30.66Q178.50-30.66 177.57-30.24L177.57-30.24L177.57-30.24Q176.64-29.82 175.68-28.42L175.68-28.42L175.68-28.42Q173.31-25.22 171.97-17.79ZM210.88-26.75L210.88-26.75L210.88-26.75Q213.06-29.82 216.35-31.87L216.35-31.87L216.35-31.87Q219.65-33.92 223.68-33.92L223.68-33.92L223.68-33.92Q227.71-33.92 229.63-32.64L229.63-32.64L242.18-33.92L237.82-9.34L237.82-9.34Q235.58 3.20 230.85 8.13L230.85 8.13L230.85 8.13Q226.30 12.80 217.47 12.80L217.47 12.80L217.47 12.80Q210.75 12.80 206.91 10.69L206.91 10.69L206.91 10.69Q203.07 8.58 203.07 5.06L203.07 5.06L203.07 5.06Q203.07 2.43 205.06 0.93L205.06 0.93L205.06 0.93Q207.04-0.58 210.11-0.58L210.11-0.58L210.11-0.58Q212.80-0.58 214.85 0.64L214.85 0.64L214.85 0.64Q216.06 1.28 216.64 2.18L216.64 2.18L216.64 2.18Q215.17 3.46 215.17 5.57L215.17 5.57L215.17 5.57Q215.17 8.32 217.73 8.32L217.73 8.32L217.73 8.32Q222.02 8.32 224.45-1.79L224.45-1.79L224.45-1.79Q225.15-4.54 225.73-7.30L225.73-7.30L225.73-7.30Q222.85-3.78 216.32-3.78L216.32-3.78L216.32-3.78Q211.78-3.78 209.15-5.95L209.15-5.95L209.15-5.95Q206.53-8.13 206.53-13.25L206.53-13.25L206.53-13.25Q206.53-16.45 207.62-20.06L207.62-20.06L207.62-20.06Q208.70-23.68 210.88-26.75ZM219.20-13.06L219.20-13.06L219.20-13.06Q219.20-8.70 221.44-8.70L221.44-8.70L221.44-8.70Q222.98-8.70 224.45-10.37L224.45-10.37L224.45-10.37Q225.60-11.71 226.05-13.70L226.05-13.70L229.31-30.14L229.31-30.14Q228.99-30.21 228.67-30.34L228.67-30.34L228.67-30.34Q228.03-30.59 227.20-30.59L227.20-30.59L227.20-30.59Q223.30-30.59 220.99-24.19L220.99-24.19L220.99-24.19Q219.20-19.20 219.20-13.06ZM247.46-1.92L247.46-1.92L247.46-1.92Q245.95-3.58 245.28-6.21L245.28-6.21L245.28-6.21Q244.61-8.83 244.61-13.12L244.61-13.12L244.61-13.12Q244.61-17.41 246.08-21.31L246.08-21.31L246.08-21.31Q247.55-25.22 250.24-28.03L250.24-28.03L250.24-28.03Q255.74-33.92 264.83-33.92L264.83-33.92L264.83-33.92Q268.10-33.92 270.46-32.83L270.46-32.83L281.41-33.92L276.67-8.96L276.67-8.96Q276.48-8.19 276.48-6.78L276.48-6.78L276.48-6.78Q276.48-5.38 277.34-4.48L277.34-4.48L277.34-4.48Q278.21-3.58 279.49-3.46L279.49-3.46L279.49-3.46Q278.85-1.28 276.51 0L276.51 0L276.51 0Q274.18 1.28 271.55 1.28L271.55 1.28L271.55 1.28Q268.93 1.28 267.17 0.29L267.17 0.29L267.17 0.29Q265.41-0.70 264.90-2.37L264.90-2.37L264.90-2.37Q263.87-0.77 261.70 0.26L261.70 0.26L261.70 0.26Q259.52 1.28 256.61 1.28L256.61 1.28L256.61 1.28Q253.70 1.28 251.33 0.51L251.33 0.51L251.33 0.51Q248.96-0.26 247.46-1.92ZM260.96-27.90L260.96-27.90L260.96-27.90Q260.22-26.75 259.58-24.80L259.58-24.80L259.58-24.80Q258.94-22.85 257.89-17.63L257.89-17.63L257.89-17.63Q256.83-12.42 256.83-8.70L256.83-8.70L256.83-8.70Q256.83-4.99 257.41-3.90L257.41-3.90L257.41-3.90Q257.98-2.82 259.01-2.82L259.01-2.82L259.01-2.82Q261.06-2.82 262.56-4.77L262.56-4.77L262.56-4.77Q264.06-6.72 264.64-10.18L264.64-10.18L268.03-28.93L268.03-28.93Q266.69-30.08 265.12-30.08L265.12-30.08L265.12-30.08Q263.55-30.08 262.62-29.57L262.62-29.57L262.62-29.57Q261.70-29.06 260.96-27.90ZM300.16-3.52L300.16-3.52L300.16-3.52Q298.18 1.28 291.84 1.28L291.84 1.28L291.84 1.28Q288.64 1.28 286.59-0.96L286.59-0.96L286.59-0.96Q284.93-2.82 284.93-4.93L284.93-4.93L284.93-4.93Q284.93-9.73 287.17-20.22L287.17-20.22L291.84-44.80L304.83-46.08L298.62-13.70L298.62-13.70Q297.54-8.96 297.54-7.30L297.54-7.30L297.54-7.30Q297.54-3.65 300.16-3.52ZM320.90-3.52L320.90-3.52L320.90-3.52Q318.91 1.28 312.58 1.28L312.58 1.28L312.58 1.28Q309.38 1.28 307.33-0.96L307.33-0.96L307.33-0.96Q305.66-2.82 305.66-4.93L305.66-4.93L305.66-4.93Q305.66-9.73 307.90-20.22L307.90-20.22L312.58-44.80L325.57-46.08L319.36-13.70L319.36-13.70Q318.27-8.96 318.27-7.30L318.27-7.30L318.27-7.30Q318.27-3.65 320.90-3.52ZM352.26-10.82L352.26-10.82L352.26-10.82Q353.86-9.73 353.86-7.33L353.86-7.33L353.86-7.33Q353.86-4.93 352.64-3.39L352.64-3.39L352.64-3.39Q351.42-1.86 349.44-0.83L349.44-0.83L349.44-0.83Q345.34 1.28 340.93 1.28L340.93 1.28L340.93 1.28Q336.51 1.28 333.92 0.32L333.92 0.32L333.92 0.32Q331.33-0.64 329.60-2.43L329.60-2.43L329.60-2.43Q326.21-5.82 326.21-12.03L326.21-12.03L326.21-12.03Q326.21-21.70 331.46-27.58L331.46-27.58L331.46-27.58Q337.09-33.92 346.88-33.92L346.88-33.92L346.88-33.92Q352.96-33.92 355.97-31.36L355.97-31.36L355.97-31.36Q358.21-29.44 358.21-26.30L358.21-26.30L358.21-26.30Q358.21-15.04 338.75-15.04L338.75-15.04L338.75-15.04Q338.50-13.38 338.50-11.97L338.50-11.97L338.50-11.97Q338.50-9.02 339.81-7.90L339.81-7.90L339.81-7.90Q341.12-6.78 343.55-6.78L343.55-6.78L343.55-6.78Q345.98-6.78 348.58-7.90L348.58-7.90L348.58-7.90Q351.17-9.02 352.26-10.82ZM339.20-17.79L339.20-17.79L339.20-17.79Q343.74-17.79 346.37-20.61L346.37-20.61L346.37-20.61Q348.99-23.30 348.99-27.58L348.99-27.58L348.99-27.58Q348.99-29.06 348.45-29.86L348.45-29.86L348.45-29.86Q347.90-30.66 346.82-30.66L346.82-30.66L346.82-30.66Q345.73-30.66 344.80-30.24L344.80-30.24L344.80-30.24Q343.87-29.82 342.91-28.42L342.91-28.42L342.91-28.42Q340.54-25.22 339.20-17.79ZM380.42-17.98L380.42-17.98L380.42-17.98Q382.72-22.08 382.72-26.24L382.72-26.24L382.72-26.24Q382.72-28.99 380.74-28.99L380.74-28.99L380.74-28.99Q379.20-28.99 377.60-26.37L377.60-26.37L377.60-26.37Q375.94-23.74 375.42-20.35L375.42-20.35L372.10 0L358.85 1.28L365.38-32.64L375.94-33.92L374.78-27.46L374.78-27.46Q377.92-33.92 384.96-33.92L384.96-33.92L384.96-33.92Q388.67-33.92 390.69-32L390.69-32L390.69-32Q392.70-30.08 392.70-26.14L392.70-26.14L392.70-26.14Q392.70-22.21 390.11-19.71L390.11-19.71L390.11-19.71Q387.52-17.22 383.10-17.22L383.10-17.22L383.10-17.22Q381.18-17.22 380.42-17.98ZM414.08-7.23L414.08-7.23L414.08-7.23Q410.75-3.78 404.67-3.78L404.67-3.78L404.67-3.78Q397.06-3.78 395.46-9.34L395.46-9.34L395.46-9.34Q394.94-11.01 394.94-12.86L394.94-12.86L394.94-12.86Q394.94-14.72 395.33-16.64L395.33-16.64L398.34-32.64L411.33-33.92L407.81-15.30L407.81-15.30Q407.68-14.46 407.49-13.57L407.49-13.57L407.49-13.57Q407.30-12.67 407.30-11.74L407.30-11.74L407.30-11.74Q407.30-10.82 407.62-10.21L407.62-10.21L407.62-10.21Q407.94-9.60 408.38-9.22L408.38-9.22L408.38-9.22Q409.15-8.70 410.53-8.70L410.53-8.70L410.53-8.70Q411.90-8.70 413.09-10.37L413.09-10.37L413.09-10.37Q414.27-12.03 414.85-14.91L414.85-14.91L418.37-32.64L430.98-33.92L426.18-8.77L426.18-8.77Q423.81 3.52 418.94 8.38L418.94 8.38L418.94 8.38Q416.45 10.88 413.22 11.87L413.22 11.87L413.22 11.87Q409.98 12.86 405.82 12.86L405.82 12.86L405.82 12.86Q399.10 12.86 395.26 10.75L395.26 10.75L395.26 10.75Q391.42 8.64 391.42 5.12L391.42 5.12L391.42 5.12Q391.42 2.50 393.41 0.99L393.41 0.99L393.41 0.99Q395.39-0.51 398.46-0.51L398.46-0.51L398.46-0.51Q401.15-0.51 403.20 0.64L403.20 0.64L403.20 0.64Q404.42 1.34 404.99 2.24L404.99 2.24L404.99 2.24Q403.52 3.52 403.52 5.63L403.52 5.63L403.52 5.63Q403.52 8.45 406.08 8.45L406.08 8.45L406.08 8.45Q410.30 8.45 412.74-1.28L412.74-1.28L412.74-1.28Q413.44-4.16 414.08-7.23Z" fill="url(#editing-rainbow-gradient)"></path></g></g><style>text {
  font-size: 64px;
  font-family: Arial Black;
  dominant-baseline: central;
  text-anchor: middle;
}</style></svg>